<?xml version="1.0" encoding="utf-8"?>
<!-- Generator: Adobe Illustrator 27.1.0, SVG Export Plug-In . SVG Version: 6.00 Build 0)  -->
<svg version="1.1" xmlns="http://www.w3.org/2000/svg" xmlns:xlink="http://www.w3.org/1999/xlink" x="0px" y="0px"
	 viewBox="0 0 940.9 605.5" style="enable-background:new 0 0 940.9 605.5;" xml:space="preserve">
<style type="text/css">
	.st0{fill:#333333;}
	.st1{fill:#FF0000;}
	.st2{fill:#FFFFFF;}
</style>
<g id="Capa_3">
</g>
<g id="Capa_2">
</g>
<g id="Capa_1">
	<path d="M933.9,605.5H7c-3.9,0-7-3.1-7-7V7c0-3.9,3.1-7,7-7h926.9c3.9,0,7,3.1,7,7v591.5C940.9,602.4,937.8,605.5,933.9,605.5z"/>
	<g>
		<rect x="27.1" y="26.4" class="st1" width="886.2" height="307.7"/>
		<g>
			<path class="st2" d="M319.3,63.3c11.1,0,19.5,0.3,25.1,1c5.6,0.7,9.7,2.2,12.4,4.5c2.7,2.3,4,6,4,10.9c0,3.6-0.9,9.2-2.7,16.7
				l-13.4,58.2l-9,38.8c-1.8,7.8-5.1,13.2-10,16.1c-4.9,2.9-11.2,4.2-18.7,4l-142.2-0.3l8.7-38.5c1.8-7.8,5.1-13.2,10-16.1
				c4.9-2.9,11.2-4.2,18.7-4h81.7l10-42.5l-121.5-0.3l-41.2,185.8H62.6l52.5-234.3h184.7H319.3z M221.3,223.6h69.9l12.7,74h-50.5
				c-7.8,0-13.4-2.1-16.7-6.4c-3.3-4.2-5.6-10.3-6.7-18.1L221.3,223.6z"/>
			<path class="st2" d="M345.8,258.7c1.8-7.8,5.1-13.2,10-16.1c4.9-2.9,11.2-4.2,18.7-4h208.8l-9,38.8c-1.8,7.8-5.1,13.2-10,16.1
				c-4.9,2.9-11.2,4.2-18.7,4l-208.5-0.3L345.8,258.7z M597.8,62.9c6.7,0,11.8,0.9,15.4,2.7c3.6,1.8,5.4,5.4,5.4,10.7
				c0,1.8-0.3,4-1,6.7l-7.4,32.5l-163.3,0.3l-24.8,109.1h-68.3l25.1-109.1l6.4-29.1c1.8-7.6,4.5-13.4,8.2-17.4c3.7-4,9.6-6,17.9-6
				L597.8,62.9z"/>
			<path class="st2" d="M603.8,258.7c1.8-7.8,5.1-13.2,10-16.1c4.9-2.9,11.2-4.2,18.7-4h208.8l-9,38.8c-1.8,7.8-5.1,13.2-10,16.1
				c-4.9,2.9-11.2,4.2-18.7,4l-208.5-0.3L603.8,258.7z M855.8,62.9c6.7,0,11.8,0.9,15.4,2.7c3.6,1.8,5.4,5.4,5.4,10.7
				c0,1.8-0.3,4-1,6.7l-7.4,32.5l-163.3,0.3l-24.8,109.1h-68.3l25.1-109.1l6.4-29.1c1.8-7.6,4.5-13.4,8.2-17.4c3.7-4,9.6-6,17.9-6
				L855.8,62.9z"/>
		</g>
		<g>
			<g>
				<path class="st2" d="M96.2,465.8c0-0.2,0-0.4-0.1-0.6c-11.7-46.4-17.6-69.8-17.7-70.3c-0.5-1.8-1.5-3.1-3-4.1
					c-1.5-0.9-3.2-1.2-4.9-0.8c-1.7,0.5-3,1.5-3.9,3c-0.9,1.5-9.1,34.3-24.9,98.4H27.1L52,391.4c0.5-1.9,1.3-3.8,2.4-5.7
					c2.9-4.9,7.1-8,12.6-9.4c5.6-1.4,10.8-0.6,15.8,2.3c4.9,2.9,8.1,7.2,9.4,12.7l7.4,29.9l7.3-29.9c1.3-5.6,4.4-9.8,9.3-12.7
					c4.9-2.9,10.2-3.7,15.8-2.3c5.5,1.4,9.7,4.5,12.6,9.4c1.1,1.9,1.9,3.7,2.4,5.7l24.9,100.1h-14.7c-15.7-64.2-23.9-97-24.8-98.4
					c-0.9-1.5-2.2-2.6-3.9-3c-1.7-0.4-3.3-0.1-4.9,0.8c-1.6,0.9-2.6,2.3-3.1,4.1c-0.2,0.5-6,24-17.6,70.3c-0.1,0.2-0.1,0.4-0.1,0.6
					l-1.4,5.2c0,0.5-0.2,0.8-0.5,1.2c-0.4,0.4-0.9,0.6-1.4,0.6c-0.5,0-1-0.2-1.4-0.6c-0.3-0.3-0.5-0.6-0.6-0.9L96.2,465.8z
					 M152.6,491.5h-14.7l-11.1-44.7l-7.3,28.9c-1.3,5.6-4.4,9.8-9.4,12.7c-4.9,2.9-10.2,3.7-15.8,2.3c-5.5-1.4-9.7-4.5-12.6-9.4
					c-1.1-1.9-1.9-3.7-2.4-5.7L72,446.8l-11.1,44.7H46.3L68.5,402c0.1-0.3,0.2-0.6,0.3-0.9l1.3-5.2c0.1-0.3,0.3-0.6,0.6-0.9
					c0.4-0.4,0.8-0.6,1.4-0.6c0.5,0,1,0.2,1.4,0.6c0.3,0.3,0.5,0.7,0.5,1.2l1.5,5.7v0.2c11.9,47.4,18,71.4,18.4,72.1
					c0.9,1.5,2.2,2.5,3.9,3c1.7,0.4,3.3,0.1,4.9-0.8c1.5-0.9,2.5-2.2,3-3.9c0.1-0.4,6-23.9,17.7-70.4l1.5-5.9c0-0.5,0.2-0.9,0.6-1.2
					c0.3-0.4,0.7-0.6,1.3-0.6c0.5,0,1,0.2,1.4,0.6c0.3,0.3,0.5,0.6,0.6,0.9l1.5,6.1L152.6,491.5z"/>
				<path class="st2" d="M177.7,408.6c0.4-8.8,3.7-16.4,10.1-22.8c6.8-6.7,15-10.1,24.6-10.1h38.1v14.1h-38.1c-5.6,0-10.5,2-14.5,6
					c-4,4-6,8.8-6,14.5v46.6c0,5.6,2,10.5,6,14.5c4,4,8.8,6,14.5,6h38.1v14.1h-38.1c-9.6,0-17.8-3.4-24.6-10.1
					c-6.3-6.4-9.7-14-10.1-22.8V408.6z M210.9,416.7h32.3v14.1h-46.7v-22.2h0.1c0.3-3.6,1.8-6.8,4.5-9.6c3.1-3,6.8-4.5,11-4.5h38.3
					v14h-35c-1.2,0-2.3,0.5-3.2,1.4c-0.9,0.9-1.4,2-1.4,3.2V416.7z M210.9,454c0,1.2,0.5,2.3,1.4,3.2c0.9,0.9,2,1.4,3.2,1.4h35v14.1
					h-38.3c-4.2,0-7.9-1.5-11-4.5c-2.7-2.8-4.2-6-4.5-9.6h-0.1v-22.2h46.7v14.1h-32.3V454z"/>
				<path class="st2" d="M345.2,402.6c-8.6-8.5-18.9-12.7-31-12.7c-12,0-22.4,4.3-30.9,12.8c-8.6,8.5-12.9,18.9-12.9,31
					s4.3,22.4,12.9,31c8.6,8.5,18.9,12.8,30.9,12.8c12.1,0,22.5-4.3,31-12.9l10,10c-11.3,11.3-25,17-41,17s-29.6-5.7-40.9-17
					s-17-25-17-40.9s5.7-29.6,17-40.9s25-17,40.9-17s29.6,5.6,41,16.9L345.2,402.6z M341.8,461.3c-7.6,7.6-16.9,11.5-27.7,11.5
					c-10.8,0-20-3.8-27.7-11.5c-7.6-7.6-11.5-16.9-11.5-27.7c0-10.8,3.8-20,11.5-27.7c7.6-7.6,16.9-11.5,27.7-11.5
					c10.8,0,20,3.8,27.7,11.5l-10,10c-4.9-4.9-10.8-7.3-17.7-7.3c-6.9,0-12.8,2.4-17.7,7.3c-4.9,4.9-7.4,10.8-7.4,17.7
					c0,6.9,2.5,12.9,7.4,17.7c4.9,4.9,10.8,7.3,17.7,7.3c6.9,0,12.9-2.4,17.7-7.3L341.8,461.3z"/>
				<path class="st2" d="M375.1,375.7v115.8h-14.1v-57.9v-57.9H375.1z M429,375.7v55.1h-49.3v-55.1h14.1v41.1h21.1v-41.1H429z
					 M414.9,491.5v-40.9h-21.1v40.9h-14.1v-55.1H429v55.1H414.9z M447.7,375.7v115.8h-14V375.7H447.7z"/>
				<path class="st2" d="M537.2,395.5l31.5,96h-14.8l-30.5-92.4c-0.6-2-1.7-3.8-3.2-5.4c-2.5-2.5-5.5-3.7-9-3.7
					c-3.5,0-6.4,1.2-8.8,3.7c-1.6,1.6-2.7,3.5-3.4,5.6l-30.6,92.3h-14.9l31.8-96.4c1.2-4.3,3.4-8.2,6.8-11.6
					c5.3-5.3,11.6-7.9,19-7.9c7.5,0,13.9,2.6,19.1,7.9C533.7,387,536,391,537.2,395.5z M538.2,458.6l10.8,32.9h-14.9l-6.1-18.8
					h-33.6l-6.1,18.8h-14.9l10.8-32.9H538.2z M485.7,454l17.5-53.3c0.4-1.5,1.2-2.9,2.3-4.1c1.5-1.5,3.4-2.3,5.7-2.3
					c2.3,0,4.3,0.8,5.9,2.3c1.2,1.2,1.9,2.6,2.3,4.2c2.8,8.9,8.5,26.6,17.3,53.2H485.7z M517.2,439.9l-6-18.2l-6,18.2H517.2z"/>
				<path class="st2" d="M636,454l-34.4-59.6c-0.3-0.8-0.9-1.7-1.9-2.7c-1.3-1.2-2.9-1.9-4.6-1.9s-3.3,0.6-4.6,1.9s-1.9,2.8-1.9,4.7
					v95.1h-14.1v-95.1c0-5.8,2-10.7,6-14.7c4-4,8.9-6,14.6-6s10.6,2,14.6,6c0.9,0.9,1.7,1.8,2.4,2.8l0.1-0.1l23.7,41.2v-49.9h14.3
					v95.1c0,0.5-0.2,1-0.7,1.4c-0.4,0.4-0.9,0.6-1.4,0.6c-0.6,0-1.1-0.2-1.5-0.7C646.5,472,642.9,466,636,454z M607.4,413.2
					l34.4,59.6c0.3,0.8,0.9,1.7,1.9,2.7c1.3,1.2,2.9,1.9,4.6,1.9c1.8,0,3.3-0.6,4.6-1.9c1.3-1.3,1.9-2.8,1.9-4.7v-95.1h14.1v95.1
					c0,5.8-2,10.7-6,14.7c-4,4-8.9,6-14.6,6c-5.7,0-10.6-2-14.6-6c-0.9-0.8-1.7-1.8-2.4-2.8l-0.1,0.1l-23.8-41.2v49.9h-14.2v-95.1
					c0-0.5,0.2-1,0.6-1.4c0.4-0.4,0.9-0.6,1.5-0.6c0.6,0,1.1,0.2,1.5,0.6C596.9,395.1,600.4,401.3,607.4,413.2z"/>
				<path class="st2" d="M690.8,375.7v115.8h-14.1V375.7H690.8z M709.5,375.7v115.8h-14.1V375.7H709.5z"/>
				<path class="st2" d="M806.2,402.6c-8.6-8.5-18.9-12.7-31-12.7c-12,0-22.3,4.3-30.9,12.8c-8.6,8.5-12.9,18.9-12.9,31
					s4.3,22.4,12.9,31c8.6,8.5,18.9,12.8,30.9,12.8c12.1,0,22.5-4.3,31-12.9l10,10c-11.3,11.3-25,17-41,17s-29.6-5.7-40.9-17
					c-11.3-11.3-17-25-17-40.9s5.7-29.6,17-40.9c11.3-11.3,25-17,40.9-17s29.6,5.6,41,16.9L806.2,402.6z M802.8,461.3
					c-7.6,7.6-16.9,11.5-27.7,11.5s-20-3.8-27.7-11.5c-7.7-7.6-11.5-16.9-11.5-27.7c0-10.8,3.8-20,11.5-27.7
					c7.6-7.6,16.9-11.5,27.7-11.5s20,3.8,27.7,11.5l-10,10c-4.9-4.9-10.8-7.3-17.7-7.3c-6.9,0-12.8,2.4-17.7,7.3
					c-4.9,4.9-7.4,10.8-7.4,17.7c0,6.9,2.4,12.9,7.4,17.7c4.9,4.9,10.8,7.3,17.7,7.3c6.9,0,12.9-2.4,17.7-7.3L802.8,461.3z"/>
				<path class="st2" d="M871.5,458.6c1.2,0,2.3-0.4,3.1-1.3c0.9-0.9,1.3-1.9,1.3-3.1c0-1.2-0.4-2.2-1.3-3c-0.9-0.8-1.9-1.3-3.1-1.3
					h-12.4c-10.3,0-19-3.6-26.3-10.8c-7.2-7.2-10.9-16-10.9-26.3c0-10.2,3.6-18.9,10.9-26.2c7.3-7.3,16-10.9,26.3-10.9h49.6v14.1
					h-49.6c-6.3,0-11.8,2.2-16.3,6.7c-4.5,4.5-6.8,9.9-6.8,16.2c0,6.3,2.3,11.8,6.8,16.3c4.5,4.5,9.9,6.8,16.3,6.8l12.4,0.1
					c5.1,0,9.5,1.8,13.1,5.4c3.6,3.6,5.4,7.9,5.4,12.9c0,5.1-1.8,9.5-5.4,13.1c-3.6,3.6-8,5.4-13.1,5.4H822v-14.1H871.5z
					 M871.5,491.5H822v-14.1h49.6c6.3,0,11.7-2.3,16.3-6.8c4.5-4.5,6.8-9.9,6.8-16.3c0-6.3-2.3-11.7-6.8-16.2
					c-4.5-4.5-9.9-6.7-16.3-6.7h-12.4c-5.1,0-9.5-1.8-13.1-5.4c-3.6-3.6-5.4-8-5.4-13.1c0-5,1.8-9.3,5.4-13c3.6-3.6,8-5.4,13.1-5.4
					h49.6v14h-49.6c-1.2,0-2.3,0.4-3.1,1.3c-0.9,0.9-1.3,1.9-1.3,3.1s0.4,2.3,1.3,3.1c0.8,0.9,1.9,1.3,3.1,1.3h12.4
					c10.2,0,18.9,3.6,26.2,10.9c7.3,7.3,10.9,16,10.9,26.2c0,10.3-3.7,19.1-10.9,26.4C890.5,487.9,881.7,491.5,871.5,491.5z"/>
			</g>
			<g>
				<path class="st2" d="M67.6,549.9c-0.6,5-2.4,8.9-5.6,11.7c-3.1,2.7-7.3,4.1-12.5,4.1c-5.6,0-10.1-2-13.5-6.1
					c-3.4-4-5.1-9.4-5.1-16.2v-4.6c0-4.4,0.8-8.3,2.4-11.7c1.6-3.4,3.8-5.9,6.7-7.7c2.9-1.8,6.3-2.7,10.1-2.7
					c5.1,0,9.1,1.4,12.2,4.2c3.1,2.8,4.8,6.7,5.3,11.7h-6.3c-0.5-3.8-1.7-6.6-3.6-8.3c-1.8-1.7-4.4-2.6-7.6-2.6
					c-4,0-7.2,1.5-9.4,4.5c-2.3,3-3.4,7.2-3.4,12.7v4.6c0,5.2,1.1,9.3,3.2,12.3s5.2,4.6,9.1,4.6c3.5,0,6.2-0.8,8-2.4
					c1.9-1.6,3.1-4.3,3.7-8.3H67.6z"/>
				<path class="st2" d="M149.4,552.6h-20L125,565h-6.5l18.2-47.6h5.5l18.2,47.6h-6.4L149.4,552.6z M131.3,547.4h16.2l-8.1-22.3
					L131.3,547.4z"/>
				<path class="st2" d="M231.1,545.8H220V565h-6.3v-47.6h15.8c5.4,0,9.5,1.2,12.4,3.7c2.9,2.4,4.3,6,4.3,10.7c0,3-0.8,5.5-2.4,7.8
					c-1.6,2.2-3.8,3.8-6.7,4.9l11.2,20.2v0.4h-6.7L231.1,545.8z M220,540.6h9.6c3.1,0,5.6-0.8,7.4-2.4c1.8-1.6,2.8-3.8,2.8-6.5
					c0-3-0.9-5.2-2.6-6.8c-1.8-1.6-4.3-2.4-7.6-2.4H220V540.6z"/>
				<path class="st2" d="M379.3,543.8c-5.4-1.6-9.3-3.4-11.8-5.7c-2.4-2.3-3.7-5-3.7-8.4c0-3.7,1.5-6.8,4.5-9.3
					c3-2.4,6.9-3.7,11.7-3.7c3.3,0,6.2,0.6,8.7,1.9c2.6,1.3,4.6,3,6,5.2c1.4,2.2,2.1,4.7,2.1,7.3h-6.3c0-2.9-0.9-5.2-2.7-6.8
					c-1.8-1.7-4.4-2.5-7.8-2.5c-3.1,0-5.5,0.7-7.2,2c-1.7,1.4-2.6,3.3-2.6,5.7c0,1.9,0.8,3.6,2.5,4.9c1.6,1.3,4.4,2.6,8.4,3.7
					c4,1.1,7.1,2.3,9.3,3.7c2.2,1.3,3.9,2.9,5,4.7c1.1,1.8,1.6,3.9,1.6,6.3c0,3.9-1.5,6.9-4.5,9.3c-3,2.3-7,3.5-12.1,3.5
					c-3.3,0-6.3-0.6-9.2-1.9c-2.8-1.2-5-3-6.6-5.1c-1.5-2.2-2.3-4.7-2.3-7.4h6.3c0,2.9,1.1,5.2,3.2,6.8c2.1,1.7,5,2.5,8.5,2.5
					c3.3,0,5.9-0.7,7.6-2s2.6-3.2,2.6-5.5s-0.8-4.1-2.5-5.4C386.6,546.3,383.6,545,379.3,543.8z"/>
				<path class="st2" d="M478.8,543h-20.6v16.9h24v5.1h-30.3v-47.6h29.9v5.1h-23.6v15.3h20.6V543z"/>
				<path class="st2" d="M552.7,556.7l13.6-39.3h6.9L555.5,565h-5.6l-17.6-47.6h6.8L552.7,556.7z"/>
				<path class="st2" d="M633.1,565h-6.3v-47.6h6.3V565z"/>
				<path class="st2" d="M726.5,549.9c-0.6,5-2.4,8.9-5.6,11.7c-3.1,2.7-7.3,4.1-12.5,4.1c-5.6,0-10.1-2-13.5-6.1s-5.1-9.4-5.1-16.2
					v-4.6c0-4.4,0.8-8.3,2.4-11.7c1.6-3.4,3.8-5.9,6.7-7.7c2.9-1.8,6.3-2.7,10.1-2.7c5.1,0,9.1,1.4,12.2,4.2
					c3.1,2.8,4.8,6.7,5.3,11.7h-6.3c-0.5-3.8-1.7-6.6-3.5-8.3s-4.4-2.6-7.6-2.6c-4,0-7.2,1.5-9.4,4.5c-2.3,3-3.4,7.2-3.4,12.7v4.6
					c0,5.2,1.1,9.3,3.2,12.3c2.2,3.1,5.2,4.6,9.1,4.6c3.5,0,6.2-0.8,8-2.4c1.9-1.6,3.1-4.3,3.7-8.3H726.5z"/>
				<path class="st2" d="M808.9,543h-20.6v16.9h24v5.1H782v-47.6h29.9v5.1h-23.6v15.3h20.6V543z"/>
				<path class="st2" d="M881,543.8c-5.4-1.6-9.3-3.4-11.8-5.7c-2.4-2.3-3.7-5-3.7-8.4c0-3.7,1.5-6.8,4.5-9.3
					c3-2.4,6.9-3.7,11.7-3.7c3.3,0,6.2,0.6,8.7,1.9c2.6,1.3,4.6,3,6,5.2c1.4,2.2,2.1,4.7,2.1,7.3h-6.3c0-2.9-0.9-5.2-2.7-6.8
					c-1.8-1.7-4.4-2.5-7.7-2.5c-3.1,0-5.5,0.7-7.2,2c-1.7,1.4-2.6,3.3-2.6,5.7c0,1.9,0.8,3.6,2.5,4.9s4.4,2.6,8.4,3.7
					c4,1.1,7.1,2.3,9.3,3.7c2.2,1.3,3.9,2.9,5,4.7c1.1,1.8,1.6,3.9,1.6,6.3c0,3.9-1.5,6.9-4.5,9.3c-3,2.3-7,3.5-12.1,3.5
					c-3.3,0-6.3-0.6-9.2-1.9c-2.8-1.2-5-3-6.6-5.1c-1.5-2.2-2.3-4.7-2.3-7.4h6.3c0,2.9,1.1,5.2,3.2,6.8c2.1,1.7,5,2.5,8.5,2.5
					c3.3,0,5.8-0.7,7.6-2c1.8-1.4,2.7-3.2,2.7-5.5s-0.8-4.1-2.5-5.4C888.3,546.3,885.3,545,881,543.8z"/>
			</g>
		</g>
	</g>
</g>
</svg>
